# Blender 4.4.0
# www.blender.org
o Cube
v 0.331102 0.860250 -0.247571
v -0.170658 0.282637 -0.164513
v 0.104727 0.282637 -0.164513
v 0.331102 0.860250 0.230046
v 0.331102 1.312770 0.230046
v 0.331102 1.312770 -0.247571
v 0.331102 1.086510 -0.247571
v 0.331102 1.086510 0.230046
v -0.101812 3.167953 -0.164513
v 0.331102 2.009992 -0.247571
v -0.397032 2.009992 -0.247571
v -0.397032 2.009992 0.230046
v 0.331102 2.009992 0.230046
v -0.101812 2.213216 -0.164513
v 0.331102 1.539030 -0.247571
v 0.331102 0.633989 -0.247571
v 0.331102 1.539030 0.230046
v 0.331102 0.633989 0.230046
v -0.397032 1.539030 -0.247571
v -0.397032 0.633989 -0.247571
v -0.397032 1.539030 0.230046
v -0.397032 0.633989 0.230046
v -0.192777 0.016348 0.230046
v -0.556844 0.016348 0.230046
v -0.556844 0.016348 -0.008762
v -0.556844 0.016348 -0.247571
v -0.192777 0.016348 -0.247571
v 0.109360 0.020726 -0.247571
v 0.473427 0.020726 -0.247571
v 0.109360 0.020726 0.230046
v 0.473427 0.020726 -0.008762
v 0.473427 0.020726 0.230046
v -0.032965 0.633989 -0.247571
v -0.032965 0.633989 0.230046
v -0.397032 0.693431 -0.008762
v -0.397032 1.312770 -0.008762
v -0.397032 0.860250 0.230046
v -0.397032 1.312770 -0.247571
v -0.397032 1.104224 -0.008762
v -0.397032 0.633989 -0.008762
v -0.397032 1.539030 -0.008762
v -0.397032 1.312770 0.230046
v -0.397032 0.860250 -0.247571
v -0.397032 1.086510 0.230046
v -0.397032 1.086510 -0.247571
v 0.331102 0.860250 -0.008762
v 0.331102 1.312770 -0.008762
v 0.331102 1.086510 -0.008762
v 0.331102 1.539030 -0.008762
v 0.331102 0.633989 -0.008762
v 0.635766 1.312770 -0.008762
v 0.635766 1.312770 0.230046
v 0.635766 1.539030 -0.247571
v 0.635766 1.539030 -0.008762
v 0.635766 1.539030 0.230046
v 0.635766 1.515018 -0.247571
v -0.397032 1.312770 0.230046
v -0.397032 1.539030 0.230046
v -0.397032 1.539030 -0.008762
v -0.397032 1.515018 -0.008762
v -0.762598 1.539030 -0.008762
v -0.762598 1.539030 -0.247571
v -0.762598 1.312770 -0.008762
v -0.762598 1.312770 -0.247571
v -0.762598 1.312770 0.230046
v -0.762598 1.539030 0.230046
v -0.762598 1.539030 -0.008762
v -0.762598 1.515018 -0.008762
v 0.635766 1.539030 -0.247571
v 0.635766 1.539030 -0.008762
v 0.635766 1.312770 -0.247571
v 0.635766 1.312770 -0.008762
v -0.397032 2.009992 -0.008762
v 0.331102 2.009992 -0.008762
v -0.032965 2.009992 -0.247571
v -0.032965 2.009992 0.230046
v -0.032965 2.009992 -0.008762
v -0.397032 2.009992 -0.128167
v 0.331102 2.009992 0.110642
v 0.149068 2.009992 -0.247571
v -0.214999 2.009992 0.230046
v -0.397032 2.009992 0.110642
v 0.331102 2.009992 -0.128167
v -0.214999 2.009992 -0.247571
v 0.149068 2.009992 0.230046
v -0.032965 2.009992 0.110642
v -0.032965 2.009992 -0.128167
v 0.149068 2.009992 -0.008762
v -0.214999 2.009992 -0.008762
v -0.214999 2.009992 -0.128167
v 0.149068 2.009992 -0.128167
v 0.149068 2.009992 0.110642
v -0.214999 2.009992 0.110642
v 0.227944 2.264617 -0.247571
v 0.252225 2.264617 -0.247571
v 0.252225 2.264617 -0.128167
v 0.252225 2.264617 -0.008762
v 0.227944 2.264617 -0.008762
v 0.227944 2.264617 -0.128167
v -0.321940 2.252688 -0.128167
v -0.321940 2.252688 -0.247571
v -0.321940 2.252688 -0.008762
v -0.287792 2.252688 -0.247571
v -0.287792 2.252688 -0.008762
v -0.287792 2.252688 -0.128167
v -0.762111 1.312770 0.230046
v -0.762111 1.312770 -0.008762
v -0.762111 1.312770 0.230046
v -0.762111 1.515018 -0.008762
v 0.109360 0.001704 -0.247571
v 0.109360 0.001704 0.230046
v 0.473427 0.001704 0.230046
v 0.473427 0.001704 -0.247571
v 0.473427 0.001704 -0.008762
v -0.556844 -0.003567 0.230046
v -0.192777 -0.003567 0.230046
v -0.556844 -0.003567 -0.008762
v -0.192777 -0.003567 -0.247571
v -0.556844 -0.003567 -0.247571
v 0.109360 0.020726 0.608973
v 0.473427 0.020726 0.608973
v 0.109360 0.001704 0.608973
v 0.473427 0.001704 0.608973
v -0.554646 0.016348 0.596435
v -0.190579 0.016348 0.596435
v -0.554646 -0.003567 0.596435
v -0.190579 -0.003567 0.596435
v 0.331102 1.303313 -0.008762
v 0.331102 1.303313 0.230046
v 0.635766 1.303313 -0.008762
v 0.635766 1.303313 0.230046
v 0.635766 1.312770 0.417792
v 0.331102 1.312770 0.417792
v 0.635766 1.303313 0.417792
v 0.331102 1.303313 0.417792
v -0.397032 1.300490 0.230046
v -0.397032 1.300490 -0.008762
v -0.762111 1.300490 0.230046
v -0.762111 1.300490 -0.008762
v -0.397032 1.312770 0.410022
v -0.762111 1.312770 0.410022
v -0.397032 1.300490 0.410022
v -0.762111 1.300490 0.410022
vn -0.9681 0.2505 -0.0000
vn -0.9741 -0.2261 -0.0000
vn 0.9741 0.2261 -0.0000
vn -0.0000 -0.0000 -1.0000
vn 0.9681 -0.2505 -0.0000
vn -1.0000 -0.0000 -0.0000
vn -0.0000 -0.0000 1.0000
vn -0.0000 1.0000 -0.0000
vn 1.0000 -0.0000 -0.0000
vn -0.0000 -1.0000 -0.0000
vn -0.0000 0.7631 0.6463
vn -0.0000 -0.7631 -0.6463
vn -0.9553 0.2956 -0.0000
vn 0.9578 0.2873 -0.0000
vn 0.9552 0.2959 -0.0000
vn -0.9552 0.2959 -0.0000
vn -1.0000 -0.0000 0.0060
vn 1.0000 -0.0000 -0.0060
vn 0.4519 -0.6807 -0.5765
vt 0.898238 0.538175
vt 0.833816 0.706914
vt 0.833808 0.538175
vt 0.377747 0.555304
vt 0.540868 0.684175
vt 0.377747 0.684165
vt 0.734964 0.182857
vt 0.670535 0.350179
vt 0.670534 0.182855
vt 0.293620 0.440147
vt 0.232487 0.605126
vt 0.195399 0.439370
vt 0.097177 0.438593
vt 0.150964 0.605662
vt 0.052743 0.604885
vt 0.169394 0.739895
vt 0.005380 0.611035
vt 0.169384 0.611035
vt 0.769379 0.477221
vt 0.833810 0.411495
vt 0.833808 0.522162
vt 0.640870 0.385753
vt 0.572624 0.547456
vt 0.542960 0.377905
vt 0.445049 0.370056
vt 0.491463 0.539765
vt 0.393552 0.531916
vt 0.769380 0.355313
vt 0.769379 0.416267
vt 0.298259 0.611035
vt 0.769378 0.538175
vt 0.169394 0.909907
vt 0.267619 0.807673
vt 0.267619 0.909907
vt 0.769386 0.706914
vt 0.005390 0.739895
vt 0.000015 0.611035
vt 0.734971 0.060954
vt 0.799398 0.121908
vt 0.734968 0.121906
vt 0.702749 0.908729
vt 0.670534 0.859616
vt 0.702749 0.859616
vt 0.670538 0.121903
vt 0.605930 0.983133
vt 0.670314 0.900900
vt 0.670314 0.983062
vt 0.898240 0.355313
vt 0.898240 0.416267
vt 0.099109 0.194422
vt 0.198336 0.068138
vt 0.247447 0.068527
vt 0.898239 0.477221
vt 0.734974 0.000003
vt 0.799401 0.060957
vt 0.863825 0.905642
vt 0.863825 0.778765
vt 0.896040 0.778765
vt 0.459683 0.187508
vt 0.655504 0.203205
vt 0.670544 -0.000000
vt 0.670541 0.060952
vt 0.799395 0.182860
vt 0.098626 0.255464
vt 0.295069 0.257019
vt 0.650653 0.555304
vt 0.644174 0.653933
vt 0.644174 0.555304
vt 0.233827 0.807673
vt 0.233828 0.680802
vt 0.266043 0.680802
vt 0.650653 0.619734
vt 0.653204 0.701932
vt 0.650653 0.701932
vt 0.734965 0.350182
vt 0.464560 0.126658
vt 0.572624 0.007849
vt 0.621579 0.011773
vt 0.124236 0.923127
vt 0.165839 0.873929
vt 0.298259 0.726118
vt 0.359210 0.661688
vt 0.359210 0.726118
vt 0.295552 0.195976
vt 0.377696 0.203105
vt 0.382625 0.120090
vt 0.377747 0.850839
vt 0.459945 0.915269
vt 0.377747 0.915269
vt 0.377747 0.786409
vt 0.459945 0.850839
vt 0.962676 0.583229
vt 0.898246 0.681858
vt 0.898246 0.583229
vt 0.966059 0.197287
vt 0.901629 0.295785
vt 0.901629 0.197287
vt 0.928255 0.810909
vt 0.934734 0.810909
vt 0.267619 0.971545
vt 0.328573 0.907116
vt 0.328573 0.971546
vt 0.670534 0.973159
vt 0.677003 0.908729
vt 0.731488 0.973160
vt 0.966059 0.000000
vt 0.901629 0.098629
vt 0.901629 0.000000
vt 0.966013 0.098629
vt 0.901629 0.098701
vt 0.989300 0.712280
vt 0.989300 0.810909
vt 0.066442 0.840286
vt 0.000000 0.937333
vt 0.000000 0.838747
vt 0.928255 0.909538
vt 0.989300 0.909538
vt 0.000483 0.193641
vt 0.731488 0.973159
vt 0.792440 0.908729
vt 0.792440 0.973160
vt 0.702749 0.810504
vt 0.670534 0.761392
vt 0.702749 0.761392
vt 0.767180 0.810504
vt 0.734964 0.761392
vt 0.767180 0.761392
vt 0.896035 0.712280
vt 0.767180 0.859616
vt 0.734964 0.810504
vt 0.799395 0.859616
vt 0.799395 0.810504
vt 0.799395 0.972106
vt 0.831610 0.905644
vt 0.831610 0.972108
vt 0.328573 0.975812
vt 0.356404 0.907115
vt 0.377685 0.975812
vt 0.201613 0.680802
vt 0.233824 0.611035
vt 0.799395 0.761392
vt 0.670534 0.712280
vt 0.702749 0.712280
vt 0.734964 0.712280
vt 0.670534 0.810504
vt 0.734964 0.908729
vt 0.734964 0.859616
vt 0.361758 0.643250
vt 0.368309 0.611035
vt 0.368309 0.643250
vt 0.361758 0.675465
vt 0.368309 0.675465
vt 0.298259 0.795873
vt 0.330474 0.726120
vt 0.330474 0.795875
vt 0.169398 0.680802
vt 0.201609 0.611035
vt 0.275821 0.000052
vt 0.296557 0.068915
vt 0.362689 0.726122
vt 0.362689 0.795876
vt 0.650653 0.587519
vt 0.659865 0.555304
vt 0.659865 0.587519
vt 0.650653 0.619734
vt 0.659865 0.619734
vt 0.169394 0.975386
vt 0.198246 0.909907
vt 0.218506 0.975386
vt 0.928250 0.712280
vt 0.928255 0.778765
vt 0.863825 0.905646
vt 0.863825 0.972109
vt 0.149225 0.067750
vt 0.120892 0.002044
vt 0.130104 0.002117
vt 0.120927 0.838747
vt 0.120927 0.903178
vt 0.066442 0.838747
vt 0.124236 0.903178
vt 0.600559 0.899360
vt 0.545992 0.997858
vt 0.545992 0.899360
vt 0.644174 0.555414
vt 0.644174 0.619798
vt 0.545992 0.684073
vt 0.799395 0.350185
vt 0.734964 0.355306
vt 0.330709 0.605903
vt 0.232447 0.610258
vt 0.540868 0.555315
vt 0.545992 0.684175
vt 0.670534 0.355304
vt 0.996762 0.355678
vt 0.898246 0.484081
vt 0.898414 0.419697
vt 0.996427 0.484447
vt 0.898581 0.582864
vt 0.769385 0.712280
vt 0.052700 0.610258
vt 0.898246 0.706914
vt 0.833816 0.712280
vt 0.665238 0.555304
vt 0.670371 0.653529
vt 0.665238 0.653529
vt 0.644174 0.684182
vt 0.545992 0.786234
vt 0.901628 0.355313
vt 0.799395 0.355309
vt 0.540868 0.786409
vt 0.659865 0.555304
vt 0.665239 0.653529
vt 0.659865 0.653529
vt 0.365841 0.906526
vt 0.267619 0.808262
vt 0.365841 0.807673
vt 0.670534 0.706882
vt 0.000000 0.838747
vt 0.000025 0.739895
vt 0.459945 0.786409
vt 0.542107 0.850885
vt 0.459945 0.850793
vt 0.368578 0.611035
vt 0.371126 0.675465
vt 0.368578 0.675465
vt 0.361758 0.726118
vt 0.361758 0.611035
vt 0.361758 0.661688
vt 0.653204 0.619734
vt 0.655756 0.701932
vt 0.653204 0.701932
vt 0.459945 0.901411
vt 0.368578 0.726118
vt 0.914478 0.987840
vt 0.863825 0.905642
vt 0.914478 0.905643
vt 0.644447 0.850838
vt 0.545992 0.786344
vt 0.644447 0.786453
vt 0.603872 0.997858
vt 0.600559 0.997858
vt 0.374439 0.659592
vt 0.377747 0.724022
vt 0.374439 0.724022
vt 0.545992 0.899250
vt 0.545992 0.850728
vt 0.371126 0.611035
vt 0.374439 0.709532
vt 0.371126 0.709532
vt 0.377747 0.611035
vt 0.377747 0.659592
vt 0.120927 0.951735
vt 0.508502 1.000000
vt 0.459945 0.901502
vt 0.508502 0.901502
vt 0.670534 0.555304
vt 0.833810 0.355313
vt 0.169394 0.807673
vt 0.670534 0.908729
vt 0.603872 0.899360
vt 0.100114 0.067361
vt 0.799405 0.000005
vt 0.928255 0.905641
vt 0.799395 0.905642
vt 0.799395 0.778766
vt 0.831610 0.778766
vt 0.449927 0.309207
vt 0.454805 0.248357
vt 0.645748 0.324904
vt 0.650626 0.264055
vt 0.660381 0.142356
vt 0.097660 0.377550
vt 0.098143 0.316507
vt 0.294103 0.379104
vt 0.294586 0.318062
vt 0.650653 0.653933
vt 0.298259 0.680802
vt 0.298257 0.807673
vt 0.169396 0.807673
vt 0.653204 0.619734
vt 0.670534 0.015697
vt 0.474713 -0.000000
vt 0.523669 0.003924
vt 0.124236 0.838747
vt 0.298259 0.661687
vt 0.377747 0.196626
vt 0.377747 0.180940
vt 0.459945 0.786409
vt 0.962676 0.681858
vt 0.966059 0.295785
vt 0.267619 0.907115
vt 0.670534 0.908729
vt 0.966059 0.098629
vt 0.966013 0.197215
vt 0.928255 0.712280
vt 0.066442 0.938872
vt 0.928255 0.810909
vt 0.000000 0.254684
vt 0.731488 0.908729
vt 0.863820 0.712280
vt 0.349853 0.907115
vt 0.361758 0.611035
vt 0.298259 0.726119
vt 0.169394 0.611035
vt 0.269270 0.000000
vt 0.189034 0.909907
vt 0.124236 0.838747
vt 0.545992 0.555304
vt 0.330668 0.611035
vt 0.545992 0.555315
vt 0.898581 0.355313
vt 0.996762 0.583229
vt 0.150922 0.611035
vt 0.898246 0.712280
vt 0.670371 0.555304
vt 0.644174 0.786344
vt 0.901629 0.350189
vt 0.545992 0.786409
vt 0.665239 0.555304
vt 0.267619 0.907115
vt 0.670534 0.712247
vt 0.005365 0.838746
vt 0.542107 0.786501
vt 0.371126 0.611035
vt 0.359210 0.611035
vt 0.655756 0.619734
vt 0.542107 0.901502
vt 0.371126 0.726118
vt 0.863825 0.987840
vt 0.603872 0.899360
vt 0.644447 0.899360
vt 0.374439 0.611035
vt 0.374439 0.611035
vt 0.124236 0.951735
vt 0.459945 1.000000
s 0
f 20/1/1 25/2/1 40/3/1
f 33/4/2 30/5/2 34/6/2
f 50/7/3 29/8/3 16/9/3
f 16/10/4 28/11/4 33/12/4
f 20/13/4 27/14/4 26/15/4
f 34/16/5 27/17/5 33/18/5
f 37/19/6 39/20/6 35/21/6
f 22/22/7 23/23/7 34/24/7
f 18/25/7 30/26/7 32/27/7
f 35/21/6 20/1/6 40/3/6
f 42/28/6 39/20/6 44/29/6
f 42/30/8 58/30/8 57/30/8
f 22/31/6 35/21/6 40/3/6
f 30/32/8 121/33/8 32/34/8
f 40/3/1 24/35/1 22/31/1
f 23/36/9 118/37/9 27/17/9
f 48/38/9 4/39/9 46/40/9
f 82/41/8 81/42/8 93/43/8
f 1/44/9 50/7/9 16/9/9
f 6/45/10 51/46/10 47/47/10
f 39/20/6 38/48/6 45/49/6
f 19/50/4 75/51/4 80/52/4
f 39/20/6 43/53/6 35/21/6
f 47/54/9 8/55/9 48/38/9
f 41/56/6 73/57/6 78/58/6
f 5/59/7 42/60/7 34/24/7
f 6/61/9 48/38/9 7/62/9
f 46/40/9 18/63/9 50/7/9
f 7/62/9 46/40/9 1/44/9
f 38/64/4 6/65/4 33/12/4
f 60/66/4 67/67/4 59/68/4
f 49/69/9 74/70/9 79/71/9
f 51/72/4 128/73/4 47/74/4
f 18/63/3 31/75/3 50/7/3
f 17/76/7 76/77/7 81/78/7
f 51/79/8 71/80/8 72/79/8
f 54/81/9 52/82/9 51/83/9
f 15/84/4 56/85/4 6/65/4
f 5/59/7 55/86/7 17/76/7
f 49/87/8 53/88/8 15/89/8
f 17/90/8 54/91/8 49/87/8
f 59/92/8 66/93/8 58/94/8
f 60/95/11 108/96/11 57/97/11
f 21/30/8 59/30/8 58/30/8
f 41/98/8 60/99/8 59/98/8
f 61/100/6 64/101/6 63/102/6
f 66/103/6 68/104/6 65/105/6
f 19/106/8 61/107/8 41/108/8
f 36/109/10 64/97/10 38/110/10
f 41/98/7 63/111/7 36/112/7
f 57/113/12 68/114/12 60/115/12
f 58/116/7 65/112/7 57/117/7
f 38/64/4 62/118/4 19/50/4
f 69/119/9 72/120/9 71/121/9
f 54/30/8 72/30/8 70/30/8
f 56/30/8 69/30/8 71/30/8
f 53/30/8 70/30/8 69/30/8
f 86/122/8 85/123/8 92/124/8
f 87/125/8 88/126/8 91/127/8
f 73/57/13 100/128/13 78/58/13
f 90/129/8 77/130/8 87/125/8
f 84/131/8 87/125/8 75/132/8
f 84/133/14 105/134/14 90/135/14
f 74/136/7 98/137/7 88/138/7
f 83/139/15 97/140/15 74/70/15
f 75/132/8 91/127/8 80/141/8
f 92/124/8 13/142/8 79/143/8
f 88/126/8 79/143/8 74/144/8
f 77/130/8 92/124/8 88/126/8
f 86/122/8 81/42/8 76/145/8
f 77/130/8 93/43/8 86/122/8
f 73/146/8 93/43/8 89/147/8
f 99/148/8 97/149/8 96/150/8
f 94/151/8 96/150/8 95/152/8
f 88/153/16 99/154/16 91/155/16
f 10/156/15 96/157/15 83/139/15
f 80/52/4 95/158/4 10/159/4
f 91/155/16 94/160/16 80/161/16
f 100/162/8 104/163/8 105/164/8
f 101/165/8 105/164/8 103/166/8
f 89/167/7 102/168/7 73/169/7
f 78/58/13 101/170/13 11/171/13
f 90/135/14 104/172/14 89/173/14
f 84/174/4 101/175/4 103/176/4
f 107/177/6 108/178/6 109/179/6
f 107/177/6 138/180/6 106/178/6
f 42/30/8 108/30/8 106/30/8
f 36/181/4 109/182/4 60/183/4
f 113/184/10 114/185/10 111/186/10
f 32/187/9 114/188/9 31/75/9
f 29/189/4 110/190/4 28/11/4
f 28/191/6 111/192/6 30/5/6
f 31/75/9 113/193/9 29/8/9
f 118/194/10 115/195/10 117/196/10
f 116/197/10 126/198/10 115/195/10
f 25/2/6 115/199/6 24/35/6
f 27/14/4 119/200/4 26/15/4
f 26/201/6 117/202/6 25/2/6
f 120/203/7 123/204/7 121/205/7
f 112/206/10 122/207/10 111/186/10
f 32/187/9 123/208/9 112/209/9
f 111/192/6 120/210/6 30/5/6
f 124/211/7 127/212/7 125/213/7
f 23/214/8 124/215/8 125/216/8
f 115/199/17 124/217/17 24/35/17
f 23/36/18 127/218/18 116/219/18
f 128/220/10 131/221/10 129/222/10
f 47/223/6 129/224/6 5/225/6
f 52/82/9 130/226/9 51/83/9
f 52/82/9 134/227/9 131/228/9
f 133/229/7 134/230/7 132/231/7
f 131/221/10 135/232/10 129/222/10
f 129/224/6 133/233/6 5/225/6
f 5/234/8 132/235/8 52/236/8
f 136/237/10 139/238/10 137/239/10
f 36/181/4 139/240/4 107/241/4
f 42/242/9 137/243/9 36/244/9
f 136/237/10 143/245/10 138/246/10
f 141/247/7 142/248/7 140/249/7
f 42/242/9 142/250/9 136/251/9
f 138/180/6 141/252/6 106/178/6
f 106/253/8 140/254/8 42/255/8
f 20/1/1 26/201/1 25/2/1
f 33/4/2 28/191/2 30/5/2
f 50/7/3 31/75/3 29/8/3
f 16/10/4 29/189/4 28/11/4
f 20/13/4 33/12/4 27/14/4
f 34/16/5 23/36/5 27/17/5
f 37/19/6 44/29/6 39/20/6
f 22/22/7 24/256/7 23/23/7
f 18/25/7 34/24/7 30/26/7
f 35/21/6 43/53/6 20/1/6
f 42/28/6 36/257/6 39/20/6
f 42/30/8 21/30/8 58/30/8
f 22/31/6 37/19/6 35/21/6
f 30/32/8 120/258/8 121/33/8
f 40/3/1 25/2/1 24/35/1
f 23/36/9 116/219/9 118/37/9
f 48/38/9 8/55/9 4/39/9
f 82/41/8 12/259/8 81/42/8
f 1/44/9 46/40/9 50/7/9
f 6/45/19 56/260/19 51/46/19
f 39/20/6 36/257/6 38/48/6
f 10/159/4 15/84/4 19/50/4
f 19/50/4 11/261/4 84/174/4
f 19/50/4 84/174/4 75/51/4
f 80/52/4 10/159/4 19/50/4
f 39/20/6 45/49/6 43/53/6
f 47/54/9 5/262/9 8/55/9
f 11/171/6 19/263/6 41/56/6
f 41/56/6 21/264/6 12/265/6
f 41/56/6 12/265/6 82/266/6
f 78/58/6 11/171/6 41/56/6
f 41/56/6 82/266/6 73/57/6
f 34/24/7 18/25/7 4/267/7
f 34/24/7 4/267/7 8/268/7
f 37/269/7 22/22/7 34/24/7
f 44/270/7 37/269/7 34/24/7
f 34/24/7 8/268/7 5/59/7
f 5/59/7 17/76/7 21/271/7
f 42/60/7 44/270/7 34/24/7
f 5/59/7 21/271/7 42/60/7
f 6/61/9 47/54/9 48/38/9
f 46/40/9 4/39/9 18/63/9
f 7/62/9 48/38/9 46/40/9
f 33/12/4 20/13/4 43/272/4
f 33/12/4 43/272/4 45/273/4
f 1/274/4 16/10/4 33/12/4
f 7/275/4 1/274/4 33/12/4
f 33/12/4 45/273/4 38/64/4
f 38/64/4 19/50/4 15/84/4
f 6/65/4 7/275/4 33/12/4
f 38/64/4 15/84/4 6/65/4
f 60/66/4 68/276/4 67/67/4
f 13/277/9 17/278/9 49/69/9
f 49/69/9 15/279/9 10/156/9
f 49/69/9 10/156/9 83/139/9
f 79/71/9 13/277/9 49/69/9
f 49/69/9 83/139/9 74/70/9
f 51/72/4 130/280/4 128/73/4
f 18/63/3 32/187/3 31/75/3
f 12/281/7 21/271/7 17/76/7
f 17/76/7 13/282/7 85/283/7
f 17/76/7 85/283/7 76/77/7
f 81/78/7 12/281/7 17/76/7
f 51/79/6 56/284/6 71/80/6
f 54/81/9 55/285/9 52/82/9
f 15/84/4 53/286/4 56/85/4
f 5/59/7 52/287/7 55/86/7
f 49/87/8 54/91/8 53/88/8
f 17/90/8 55/288/8 54/91/8
f 59/92/8 67/289/8 66/93/8
f 60/95/11 109/290/11 108/96/11
f 21/30/8 41/30/8 59/30/8
f 41/98/8 36/112/8 60/99/8
f 61/100/6 62/291/6 64/101/6
f 66/103/6 67/292/6 68/104/6
f 19/106/8 62/293/8 61/107/8
f 36/109/10 63/294/10 64/97/10
f 41/98/7 61/295/7 63/111/7
f 57/113/12 65/296/12 68/114/12
f 58/116/7 66/297/7 65/112/7
f 38/64/4 64/298/4 62/118/4
f 69/119/9 70/299/9 72/120/9
f 54/30/8 51/30/8 72/30/8
f 56/30/8 53/30/8 69/30/8
f 53/30/8 54/30/8 70/30/8
f 86/122/8 76/145/8 85/123/8
f 87/125/8 77/130/8 88/126/8
f 73/57/13 102/300/13 100/128/13
f 90/129/8 89/147/8 77/130/8
f 84/131/8 90/129/8 87/125/8
f 84/133/14 103/264/14 105/134/14
f 74/136/7 97/301/7 98/137/7
f 83/139/15 96/157/15 97/140/15
f 75/132/8 87/125/8 91/127/8
f 92/124/8 85/123/8 13/142/8
f 88/126/8 92/124/8 79/143/8
f 77/130/8 86/122/8 92/124/8
f 86/122/8 93/43/8 81/42/8
f 77/130/8 89/147/8 93/43/8
f 73/146/8 82/41/8 93/43/8
f 99/148/8 98/302/8 97/149/8
f 94/151/8 99/148/8 96/150/8
f 88/153/16 98/303/16 99/154/16
f 10/156/15 95/304/15 96/157/15
f 80/52/4 94/305/4 95/158/4
f 91/155/16 99/154/16 94/160/16
f 100/162/8 102/66/8 104/163/8
f 101/165/8 100/162/8 105/164/8
f 89/167/7 104/306/7 102/168/7
f 78/58/13 100/128/13 101/170/13
f 90/135/14 105/134/14 104/172/14
f 84/174/4 11/261/4 101/175/4
f 107/177/8 106/178/8 108/178/8
f 107/177/6 139/307/6 138/180/6
f 42/30/8 57/30/8 108/30/8
f 36/181/4 107/241/4 109/182/4
f 111/186/10 110/308/10 113/184/10
f 114/185/10 112/206/10 111/186/10
f 32/187/9 112/209/9 114/188/9
f 29/189/4 113/309/4 110/190/4
f 28/191/6 110/310/6 111/192/6
f 31/75/9 114/188/9 113/193/9
f 117/196/10 119/311/10 118/194/10
f 118/194/10 116/197/10 115/195/10
f 116/197/10 127/312/10 126/198/10
f 25/2/6 117/202/6 115/199/6
f 27/14/4 118/313/4 119/200/4
f 26/201/6 119/314/6 117/202/6
f 120/203/7 122/315/7 123/204/7
f 112/206/10 123/316/10 122/207/10
f 32/187/9 121/317/9 123/208/9
f 111/192/6 122/318/6 120/210/6
f 124/211/7 126/319/7 127/212/7
f 23/214/8 24/320/8 124/215/8
f 115/199/17 126/321/17 124/217/17
f 23/36/18 125/322/18 127/218/18
f 128/220/10 130/323/10 131/221/10
f 47/223/6 128/324/6 129/224/6
f 52/82/9 131/228/9 130/226/9
f 52/82/9 132/325/9 134/227/9
f 133/229/7 135/326/7 134/230/7
f 131/221/10 134/327/10 135/232/10
f 129/224/6 135/328/6 133/233/6
f 5/234/8 133/329/8 132/235/8
f 136/237/10 138/246/10 139/238/10
f 36/181/4 137/330/4 139/240/4
f 42/242/9 136/251/9 137/243/9
f 136/237/10 142/331/10 143/245/10
f 141/247/7 143/332/7 142/248/7
f 42/242/9 140/333/9 142/250/9
f 138/180/6 143/334/6 141/252/6
f 106/253/8 141/335/8 140/254/8
l 3 2
