# Blender 4.4.0
# www.blender.org
mtllib simple.mtl
o Cube
v 0.703916 2.994097 0.356856
v 0.703916 0.994097 0.356856
v 0.703916 2.994097 -0.356856
v 0.703916 0.994097 -0.356856
v -0.731506 2.994097 0.356856
v -0.731506 0.994097 0.356856
v -0.731506 2.994097 -0.356856
v -0.731506 0.994097 -0.356856
v -0.013795 0.994097 0.356856
v -0.013795 0.994097 -0.356856
v -0.013795 0.016212 -0.356856
v 0.703916 0.016212 -0.356856
v 0.703916 0.016212 0.356856
v -0.013795 0.016212 0.356856
v -0.731506 0.016212 0.356856
v -0.731506 0.016212 -0.356856
v -0.013795 0.016212 0.356856
v -0.013795 0.016212 -0.356856
v 1.415175 2.994097 0.356856
v 1.415175 0.994097 0.356856
v 1.415175 2.994097 -0.356856
v 1.415175 0.994097 -0.356856
v -1.452186 0.994097 0.356856
v -1.452186 0.994097 -0.356856
v -1.452186 2.994097 -0.356856
v -1.452186 2.994097 0.356856
v 0.703916 3.781655 -0.356856
v -0.731506 3.781655 -0.356856
v 0.703916 3.781655 0.356856
v -0.731506 3.781655 0.356856
v -0.013795 3.781655 -0.356856
v -0.013795 3.781655 0.356856
v -0.731506 3.781655 -0.356856
v -0.731506 3.781655 0.356856
v -0.368317 4.268509 -0.356856
v -0.376984 4.268509 -0.356856
v -0.376984 4.268509 0.356856
v -0.368317 4.268509 0.356856
v 0.347871 4.277342 0.356856
v 0.347871 4.277342 -0.356856
v 0.342249 4.277342 0.356856
v 0.342249 4.277342 -0.356856
vn -0.0000 -0.0000 -1.0000
vn -0.0000 -0.0000 1.0000
vn -1.0000 -0.0000 -0.0000
vn 1.0000 -0.0000 -0.0000
vn -0.0000 1.0000 -0.0000
vn -0.0000 -1.0000 -0.0000
vn 0.8084 -0.5887 -0.0000
vn -0.8084 -0.5887 -0.0000
vn -0.8122 -0.5834 -0.0000
vn 0.8122 -0.5834 -0.0000
vt 0.115104 0.204954
vt 0.229733 0.079169
vt 0.344363 0.079169
vt 0.571561 0.204954
vt 0.800821 0.524385
vt 0.686191 0.524385
vt 0.115104 0.524385
vt 0.000000 0.204954
vt 0.569955 0.680569
vt 0.455964 0.836752
vt 0.455964 0.680569
vt 0.571561 0.524385
vt 0.457962 0.204954
vt 0.344363 0.524385
vt 0.229733 0.524385
vt 0.683946 0.680569
vt 0.569955 0.836752
vt 0.569955 0.680569
vt 0.683946 0.836752
vt 0.797937 0.951382
vt 0.683946 0.951382
vt 0.797937 0.680569
vt 0.683946 0.836752
vt 0.683946 0.680569
vt 0.229733 0.680569
vt 0.571561 0.680569
vt 0.797937 0.836752
vt 0.911928 0.951382
vt 0.911928 0.680569
vt 0.797937 0.836752
vt 0.797937 0.680569
vt 0.115104 0.680569
vt 0.686191 0.680569
vt 0.000000 0.680569
vt 0.113991 1.000000
vt 0.000000 1.000000
vt 0.344363 0.204954
vt 0.457962 0.524385
vt 0.341973 0.884112
vt 0.455572 0.998103
vt 0.341973 0.998103
vt 0.341581 0.999514
vt 0.227982 0.885523
vt 0.341581 0.885523
vt 0.113991 0.680569
vt 0.227982 1.000000
vt 0.800821 0.204954
vt 0.915925 0.524385
vt 0.569955 0.836752
vt 0.455964 0.951856
vt 0.455964 0.836752
vt 0.569955 0.951856
vt 0.683946 0.836752
vt 0.683946 0.951856
vt 0.341973 0.758327
vt 0.455964 0.680569
vt 0.455964 0.758327
vt 0.686191 0.079169
vt 0.800821 0.079169
vt 0.341973 0.884112
vt 0.455964 0.884112
vt 0.341973 0.759738
vt 0.341973 0.885523
vt 0.571561 0.079169
vt 0.629325 0.000000
vt 0.227982 0.680569
vt 0.917309 0.000000
vt 0.915925 0.113991
vt 0.915925 0.000000
vt 0.744198 0.001411
vt 0.171727 0.001411
vt 0.173111 0.001411
vt 0.989686 0.950743
vt 0.911928 0.836752
vt 0.989686 0.836752
vt 0.916822 0.113991
vt 0.915924 0.227982
vt 0.915924 0.113991
vt 0.287497 0.000000
vt 0.227982 0.759738
vt 0.341973 0.680569
vt 0.991097 0.794560
vt 0.911928 0.680569
vt 0.991097 0.680569
vt 0.115104 0.079169
vt 0.000000 0.524385
vt 0.569955 0.836752
vt 0.683946 0.836752
vt 0.797937 0.836752
vt 0.344363 0.680569
vt 0.911928 0.836752
vt 0.911928 0.836752
vt 0.800821 0.680569
vt 0.455572 0.884112
vt 0.227982 0.999514
vt 0.915925 0.204954
vt 0.569955 0.951856
vt 0.569955 0.836752
vt 0.341973 0.680569
vt 0.628427 0.000000
vt 0.917309 0.113991
vt 0.742814 0.001411
vt 0.911928 0.950743
vt 0.916822 0.227982
vt 0.286599 0.000000
vt 0.911928 0.794560
s 0
usemtl Material
f 5/1/1 32/2/1 29/3/1
f 3/4/2 8/5/2 10/6/2
f 6/7/1 26/8/1 5/1/1
f 4/9/3 13/10/3 2/11/3
f 4/12/2 21/13/2 3/4/2
f 5/1/1 2/14/1 9/15/1
f 6/16/4 16/17/4 8/18/4
f 13/19/5 11/20/5 14/21/5
f 9/22/4 11/23/4 10/24/4
f 2/14/1 14/25/1 9/15/1
f 10/6/2 12/26/2 4/12/2
f 17/27/5 16/28/5 15/20/5
f 10/29/3 17/30/3 9/31/3
f 9/15/1 15/32/1 6/7/1
f 8/5/2 18/33/2 10/6/2
f 19/34/3 22/35/3 20/36/3
f 1/37/1 20/38/1 2/14/1
f 2/39/5 22/40/5 4/41/5
f 3/42/6 19/43/6 1/44/6
f 25/45/4 23/46/4 24/35/4
f 7/47/2 24/48/2 8/5/2
f 8/49/5 23/50/5 6/51/5
f 5/52/6 25/53/6 7/54/6
f 28/55/7 37/56/7 30/57/7
f 3/4/2 31/58/2 28/59/2
f 7/60/4 30/57/4 5/61/4
f 1/43/3 27/62/3 3/63/3
f 27/64/2 42/65/2 31/58/2
f 30/66/5 33/66/5 34/66/5
f 37/67/6 35/68/6 38/69/6
f 31/58/2 36/70/2 28/59/2
f 32/2/1 37/71/1 38/72/1
f 32/73/8 35/74/8 31/75/8
f 41/76/6 40/77/6 39/78/6
f 32/2/1 39/79/1 29/3/1
f 29/80/9 40/81/9 27/62/9
f 31/82/10 41/83/10 32/84/10
f 29/3/1 1/37/1 5/1/1
f 5/1/1 30/85/1 32/2/1
f 10/6/2 4/12/2 3/4/2
f 3/4/2 7/47/2 8/5/2
f 6/7/1 23/86/1 26/8/1
f 4/9/3 12/87/3 13/10/3
f 4/12/2 22/38/2 21/13/2
f 9/15/1 6/7/1 5/1/1
f 5/1/1 1/37/1 2/14/1
f 6/16/4 15/88/4 16/17/4
f 13/19/5 12/89/5 11/20/5
f 9/22/4 14/27/4 11/23/4
f 2/14/1 13/90/1 14/25/1
f 10/6/2 11/33/2 12/26/2
f 17/27/5 18/91/5 16/28/5
f 10/29/3 18/92/3 17/30/3
f 9/15/1 17/25/1 15/32/1
f 8/5/2 16/93/2 18/33/2
f 19/34/3 21/45/3 22/35/3
f 1/37/1 19/13/1 20/38/1
f 2/39/5 20/94/5 22/40/5
f 3/42/6 21/95/6 19/43/6
f 25/45/4 26/66/4 23/46/4
f 7/47/2 25/96/2 24/48/2
f 8/49/5 24/97/5 23/50/5
f 5/52/6 26/98/6 25/53/6
f 28/55/7 36/99/7 37/56/7
f 28/59/2 7/47/2 3/4/2
f 3/4/2 27/64/2 31/58/2
f 7/60/4 28/55/4 30/57/4
f 1/43/3 29/80/3 27/62/3
f 27/64/2 40/100/2 42/65/2
f 30/66/5 28/66/5 33/66/5
f 37/67/6 36/101/6 35/68/6
f 31/58/2 35/102/2 36/70/2
f 32/2/1 30/85/1 37/71/1
f 32/73/8 38/103/8 35/74/8
f 41/76/6 42/104/6 40/77/6
f 32/2/1 41/105/1 39/79/1
f 29/80/9 39/66/9 40/81/9
f 31/82/10 42/106/10 41/83/10
